<?xml version="1.0" encoding="UTF-8" standalone="no"?>
<svg
   xmlns:dc="http://purl.org/dc/elements/1.1/"
   xmlns:cc="http://creativecommons.org/ns#"
   xmlns:rdf="http://www.w3.org/1999/02/22-rdf-syntax-ns#"
   xmlns:svg="http://www.w3.org/2000/svg"
   xmlns="http://www.w3.org/2000/svg"
   id="svg784"
   version="1.1"
   viewBox="0 0 48.112289 9.2071171"
   height="9.2071171mm"
   width="48.112289mm">
  <defs
     id="defs778" />
  <metadata
     id="metadata781">
    <rdf:RDF>
      <cc:Work
         rdf:about="">
        <dc:format>image/svg+xml</dc:format>
        <dc:type
           rdf:resource="http://purl.org/dc/dcmitype/StillImage" />
        <dc:title></dc:title>
      </cc:Work>
    </rdf:RDF>
  </metadata>
  <g
     id="layer1">
    <path
       id="rect9454"
       d="m 22.471799,8.0688466e-8 h 1.5875 V 9.2071171 h -1.5875 z"
       style="display:inline;opacity:1;fill:#175cac;fill-opacity:1;stroke:none;stroke-width:0.13229166;stroke-linecap:round;stroke-linejoin:round;stroke-miterlimit:4;stroke-dasharray:none;stroke-dashoffset:0;stroke-opacity:1" />
    <path
       id="path9452"
       d="m 0,0.03656208 v 0.108876 h 0.141975 c 0.189495,0 0.350282,0.06972 0.481462,0.208174 0.138457,0.13118 0.211561,0.290909 0.218837,0.480378 V 6.9008061 c -0.0071,0.123878 -0.03987,0.237437 -0.09821,0.33946 -0.13843,0.225928 -0.339725,0.338429 -0.602086,0.338429 H 3e-6 v 0.109934 H 3.323249 V 7.5786951 H 3.181273 c -0.189494,0 -0.353695,-0.06525 -0.492151,-0.196427 C 2.557941,7.2437851 2.489308,7.0796111 2.482006,6.8901171 V 0.51696608 h 0.03305 0.469715 0.327765 c 0.378937,0.0071 0.688235,0.145626 0.928741,0.415263 0.24048,0.26233502 0.360812,0.69305002 0.360812,1.29061102 0,0.08747 -0.01455,0.207804 -0.04376,0.360839 -0.08744,0.444579 -0.258418,0.765096 -0.513503,0.961866 C 3.79707,3.7422891 3.509151,3.8401591 3.1812,3.8401591 H 2.842789 v 0.109987 c 0.291518,0.04374 0.538956,0.287761 0.743003,0.732314 0.466434,1.005708 0.768932,1.628748 0.907388,1.869255 0.240506,0.422698 0.568881,0.717364 0.984277,0.884978 0.422698,0.167614 0.950198,0.251936 1.584219,0.251936 h 1.0718 V 7.5786951 C 7.849261,7.5715951 7.611983,7.5095351 7.422515,7.3929311 7.043552,7.1524251 6.460939,6.4022781 5.673883,5.1414861 5.353208,4.6386451 4.980992,4.3181291 4.558321,4.1796461 c 0.583009,-0.05829 1.028329,-0.29218 1.334426,-0.700299 0.30607,-0.40812 0.459025,-0.830951 0.459025,-1.268201 0,-0.44458 -0.0731,-0.801106 -0.218837,-1.070742 C 5.987176,0.86346408 5.790353,0.64864908 5.542571,0.49558708 5.054309,0.18951708 4.457117,0.03656208 3.750177,0.03656208 Z m 40.711389,0.939429 0.0222,0.15372302 c 0.0583,0.284216 0.0876,0.644155 0.0876,1.081432 v 4.810283 c 0,0.160338 -0.0585,0.295275 -0.17508,0.404601 -0.1166,0.102024 -0.2594,0.152665 -0.42701,0.152665 h -0.17402 v 0.109934 h 3.06062 v -0.109934 h -0.18573 c -0.16762,0 -0.31044,-0.05062 -0.42704,-0.152665 -0.1093,-0.109326 -0.16777,-0.244263 -0.17505,-0.404601 v -3.617859 l 5.01846,4.427035 h 0.0982 l -0.0225,-0.153697 c -0.0583,-0.291518 -0.0876,-0.662702 -0.0876,-1.114504 v -4.777211 c 0.007,-0.160337 0.0658,-0.291915 0.17507,-0.393938 0.11663,-0.102023 0.2594,-0.152665 0.42704,-0.152665 h 0.18574 v -0.108876 h -3.07237 v 0.108876 h 0.18576 c 0.16762,0 0.30594,0.05509 0.41527,0.164412 0.11662,0.102024 0.17507,0.232543 0.17507,0.392854 v 3.596507 l -5.00666,-4.40462402 z m -5.04516,0.01191 c -1.16602,0 -2.10283,0.30929802 -2.80974,0.92874002 -0.69964,0.612167 -1.04939,1.443249 -1.04939,2.492693 0,1.049443 0.35314,1.883939 1.06008,2.503381 0.70688,0.612167 1.64372,0.918052 2.80974,0.918052 1.16602,0 2.10283,-0.305885 2.80974,-0.918052 0.70689,-0.619442 1.06006,-1.453938 1.06006,-2.503381 0,-1.049444 -0.35317,-1.880526 -1.06006,-2.492693 -0.70691,-0.619442 -1.64711,-0.92874002 -2.82043,-0.92874002 z M 7.639261,1.1298761 v 0.108876 h 0.152665 c 0.138483,0 0.255402,0.04387 0.350149,0.131313 0.102024,0.08744 0.152665,0.196585 0.152665,0.327739 v 3.629607 c 0,0.794359 0.263102,1.409594 0.787823,1.846845 0.531998,0.43725 1.270927,0.65651 2.218347,0.65651 0.954669,0 1.673278,-0.222646 2.154264,-0.667199 0.480986,-0.451829 0.721651,-1.07151 0.721651,-1.858566 v -3.617886 c 0.0071,-0.131154 0.05792,-0.236881 0.152664,-0.31705 0.09472,-0.08742 0.211667,-0.131313 0.35015,-0.131313 h 0.152638 v -0.108876 h -2.021893 v 0.108876 h 0.141976 c 0.138482,0 0.25437,0.04387 0.349091,0.131313 0.09475,0.08017 0.146447,0.189283 0.153723,0.327739 v 3.673396 c 0,0.634021 -0.164201,1.128897 -0.492125,1.486006 -0.320649,0.357108 -0.761524,0.535887 -1.322679,0.535887 -0.561128,0 -0.998643,-0.188966 -1.312016,-0.567928 -0.30607,-0.378963 -0.459026,-0.904161 -0.459026,-1.574642 v -3.552719 c 0,-0.131154 0.04723,-0.240294 0.142003,-0.327739 0.09472,-0.08742 0.488632,-0.131313 0.350149,-0.131313 h 0.152665 v -0.108876 z m 7.784466,0 v 0.108876 h 0.120623 c 0.08017,0 0.156634,0.01455 0.2295,0.04379 0.240506,0.09475 0.364225,0.273526 0.371528,0.535914 v 5.181811 c -0.0071,0.167614 -0.06916,0.305938 -0.185764,0.415264 -0.1093,0.109299 -0.24765,0.163327 -0.415264,0.163327 h -0.120623 v 0.109961 h 3.170555 c 0.378962,0 0.728715,-0.03265 1.04939,-0.09821 1.129587,-0.240506 1.694177,-0.830951 1.694177,-1.771068 0,-0.480986 -0.1642,-0.874607 -0.49215,-1.180677 -0.32792,-0.313372 -0.73618,-0.488791 -1.224464,-0.525224 0.459134,-0.03646 0.802134,-0.251248 1.028034,-0.64479 0.11661,-0.204046 0.17508,-0.441325 0.17508,-0.710962 0,-1.085876 -0.82431,-1.628007 -2.471341,-1.628007 z m 10.132962,0 v 6.558915 h 2.29626 l -0.0106,-0.109934 h -0.10887 c -0.16762,0 -0.31044,-0.054 -0.42701,-0.163354 -0.11661,-0.116602 -0.1785,-0.254926 -0.18577,-0.415237 v -5.192501 c 0.007,-0.160337 0.0692,-0.295301 0.18576,-0.404601 0.12388,-0.109326 0.2667,-0.164412 0.42701,-0.164412 h 0.11957 v -0.108876 z m 3.81645,0 v 0.09821 h 0.0982 c 0.12391,0 0.21162,0.04723 0.26263,0.141976 0.051,0.08744 0.0364,0.181954 -0.0438,0.283977 l -2.24073,2.974155 c 0,0.0071 0.36774,0.524615 1.10381,1.552178 0.28422,0.386238 0.44395,0.607853 0.48038,0.666141 0.42997,0.561155 1.15197,0.842275 2.16495,0.842275 h 0.84122 v -0.09819 c -0.36436,-0.0071 -0.69168,-0.218731 -0.98319,-0.634127 l -2.29627,-3.191959 1.8148,-2.142517 c 0.26239,-0.262361 0.59077,-0.393912 0.98428,-0.393912 h 0.0438 v -0.09821 z m 6.29309,0.29464 c 0.67048,0 1.20243,0.269902 1.59597,0.809175 0.40081,0.532024 0.601,1.257406 0.601,2.175643 0,0.918262 -0.20019,1.647004 -0.601,2.186331 -0.39354,0.531971 -0.92549,0.797428 -1.59597,0.797428 -0.66318,0 -1.19512,-0.265457 -1.59594,-0.797428 -0.39354,-0.539327 -0.59034,-1.268069 -0.59034,-2.186331 0,-0.918237 0.1968,-1.643619 0.59034,-2.175643 0.40082,-0.539273 0.93276,-0.809175 1.59594,-0.809175 z m -17.968673,0.131283 h 0.306387 c 0.794332,0 1.19134,0.437489 1.19134,1.312016 0,0.430001 -0.109088,0.747104 -0.327713,0.951177 -0.218625,0.204047 -0.503158,0.305303 -0.852964,0.305303 v 0.0993 h 0.02249 c 0.626745,0 1.06762,0.218202 1.322705,0.655452 0.138456,0.225928 0.207089,0.507074 0.207089,0.842275 0,0.524721 -0.134938,0.91051 -0.404601,1.158293 -0.262361,0.247756 -0.604282,0.371501 -1.026954,0.371501 h -0.4377 z"
       style="font-style:normal;font-variant:normal;font-weight:bold;font-stretch:normal;font-size:medium;line-height:200%;font-family:Cinzel;-inkscape-font-specification:'Cinzel Bold';text-align:start;letter-spacing:0px;word-spacing:0px;writing-mode:lr-tb;text-anchor:start;display:inline;opacity:1;fill:#000000;fill-opacity:1;stroke:none;stroke-width:0.26458332px;stroke-linecap:butt;stroke-linejoin:miter;stroke-opacity:1" />
  </g>
</svg>
