<svg xmlns="http://www.w3.org/2000/svg" version="1.1" xmlns:xlink="http://www.w3.org/1999/xlink" xmlns:svgjs="http://svgjs.com/svgjs" width="154.89288mm" height="154.80144mm"><svg xmlns:dc="http://purl.org/dc/elements/1.1/" xmlns:cc="http://creativecommons.org/ns#" xmlns:rdf="http://www.w3.org/1999/02/22-rdf-syntax-ns#" xmlns:svg="http://www.w3.org/2000/svg" xmlns="http://www.w3.org/2000/svg" xmlns:sodipodi="http://sodipodi.sourceforge.net/DTD/sodipodi-0.dtd" xmlns:inkscape="http://www.inkscape.org/namespaces/inkscape" width="154.89288mm" height="154.80144mm" viewBox="0 0 154.89288 154.80144" version="1.1" id="SvgjsSvg1008" inkscape:version="0.92.5 (2060ec1f9f, 2020-04-08)" sodipodi:docname="akademie_logo_small.svg">
  <defs id="SvgjsDefs1007"></defs>
  <sodipodi:namedview id="SvgjsSodipodi:namedview1006" pagecolor="#ffffff" bordercolor="#666666" borderopacity="1.0" inkscape:pageopacity="0.0" inkscape:pageshadow="2" inkscape:zoom="0.49497475" inkscape:cx="369.33906" inkscape:cy="-175.54289" inkscape:document-units="mm" inkscape:current-layer="layer1" showgrid="false" inkscape:window-width="1920" inkscape:window-height="1043" inkscape:window-x="0" inkscape:window-y="0" inkscape:window-maximized="1"></sodipodi:namedview>
  <metadata id="SvgjsMetadata1005">
    <rdf:rdf>
      <cc:work rdf:about="">
        <dc:format>image/svg+xml</dc:format>
        <dc:type rdf:resource="http://purl.org/dc/dcmitype/StillImage"></dc:type>
        <dc:title></dc:title>
      </cc:work>
    </rdf:rdf>
  </metadata>
  <g inkscape:label="Layer 1" inkscape:groupmode="layer" id="SvgjsG1004" transform="translate(-0.71465302,0.10931396)">
    <ellipse ry="77.400719" rx="77.446442" id="SvgjsEllipse1003" data-name="Ellipse 41" cx="78.161095" cy="77.291405" style="fill:#091d4b;stroke-width:1.93558931"></ellipse>
    <path id="SvgjsPath1002" data-name="Pfad 119" d="m 123.07037,81.738093 c -0.1353,1.30619 -0.24573,2.61427 -0.41394,3.91651 a 44.977019,44.950466 0 0 1 -11.85511,25.383597 48.39047,48.361903 0 0 1 -11.837701,9.27258 c -0.0834,0.0439 -0.1726,0.079 -0.37372,0.16821 -0.58069,-2.05303 -1.16167,-4.06357 -1.68443,-6.07791 a 0.82674073,0.82625263 0 0 1 0.31594,-0.68089 40.097893,40.074221 0 0 0 18.370221,-26.024037 47.906431,47.878149 0 0 0 0.59605,-7.65302 c 0.68161,-15.92907 -10.27906,-31.95679 -26.856461,-37.38067 a 39.625469,39.602077 0 0 0 -14.45929,-1.74155 37.269161,37.24716 0 0 0 -21.74311,8.28 38.68256,38.659723 0 0 0 -14.30241,23.75812 39.846193,39.822669 0 0 0 -0.27133,11.25796 37.342736,37.32069 0 0 0 13.31304,25.267397 c 1.76386,1.53451 3.73484,2.82709 5.5858,4.25709 a 0.90031488,0.89978334 0 0 1 0.30205,0.75079 c -0.54632,1.97178 -1.14617,3.93194 -1.76189,5.9985 -0.83446,-0.49147 -1.61671,-0.92296 -2.36795,-1.39899 a 45.220974,45.194279 0 0 1 -21.11964,-30.130187 45.550123,45.523232 0 0 1 21.65791,-48.51474 44.798893,44.772445 0 0 1 20.08962,-6.25008 4.0852996,4.0828878 0 0 0 0.56314,-0.11775 h 5.13272 c 0.21136,0.0439 0.42199,0.1002 0.63481,0.12945 1.93617,0.26475 3.90136,0.37518 5.79496,0.80887 a 45.422336,45.395521 0 0 1 31.828521,24.60377 42.839497,42.814206 0 0 1 4.45316,14.61324 c 0.1492,1.27905 0.27133,2.56 0.40443,3.84102 z" inkscape:connector-curvature="0" style="fill:#ffffff;stroke-width:1.93558931"></path>
    <path id="SvgjsPath1001" data-name="Pfad 120" d="m 60.059919,105.4576 a 31.05215,31.033818 0 0 1 -9.26453,-9.868627 30.204111,30.18628 0 0 1 -3.90714,-20.16677 30.767534,30.74937 0 1 1 47.46307,30.089587 c -0.24573,-0.99463 -0.49147,-1.95247 -0.72184,-2.91221 -0.24573,-1.02169 -0.44905,-2.05311 -0.72769,-3.063167 a 1.2372069,1.2364765 0 0 1 0.38688,-1.40484 27.553506,27.53724 0 0 0 4.64675,-5.63473 24.153608,24.139349 0 1 0 -43.92957,-18.88385 26.138172,26.122742 0 0 0 -0.60775,8.58373 22.755699,22.742266 0 0 0 6.38932,14.34622 c 0.58069,0.63481 1.20424,1.2152 1.78127,1.84599 a 0.83642155,0.83592775 0 0 1 0.24573,0.6136 c -0.4783,1.989257 -0.98936,3.974567 -1.5005,5.955997 a 3.1578785,3.1560143 0 0 1 -0.25597,0.49512" inkscape:connector-curvature="0" style="fill:#81a4cd;stroke-width:1.93558931"></path>
    <ellipse ry="10.139493" rx="10.145483" id="SvgjsEllipse1000" data-name="Ellipse 42" cx="78.194008" cy="77.322426" style="fill:#ffffff;stroke-width:1.93558931"></ellipse>
  </g>
</svg><style>@media (prefers-color-scheme: light) { :root { filter: none; } }
</style></svg>