<svg xmlns="http://www.w3.org/2000/svg" width="305.839" height="80" viewBox="0 0 305.839 80">
  <g id="Gruppe_4811" data-name="Gruppe 4811" transform="translate(-7.217 -7.217)">
    <path id="Pfad_1244" data-name="Pfad 1244" d="M1.326-12.54H7.951v2.008H3.5v2.008H7.616v2.008H3.5v3.849H1.326Zm9.93,0h3.821a6.743,6.743,0,0,1,1.43.146,3.392,3.392,0,0,1,1.185.488,2.432,2.432,0,0,1,.809.921,3.117,3.117,0,0,1,.3,1.444,2.9,2.9,0,0,1-.544,1.778,2.449,2.449,0,0,1-1.59.927l2.51,4.17H16.57L14.506-6.612H13.432v3.947H11.256Zm2.176,4.086h1.283q.293,0,.621-.021a1.944,1.944,0,0,0,.593-.126,1.025,1.025,0,0,0,.439-.328,1,1,0,0,0,.174-.628,1.042,1.042,0,0,0-.153-.6A1.023,1.023,0,0,0,16-10.5a1.732,1.732,0,0,0-.544-.16,4.437,4.437,0,0,0-.6-.042H13.432Zm8.689-4.086h6.709v2.008H24.3V-8.69h4.282v2.008H24.3v2.008h4.784v2.008h-6.96Zm10.418,0h2.176v9.874H32.539Zm5.983,0h6.709v2.008H40.7V-8.69H44.98v2.008H40.7v2.008h4.784v2.008h-6.96Zm19.568,0h1.8l4.3,9.874H61.73L60.88-4.757H57.044l-.823,2.092h-2.4Zm.837,2.873L57.728-6.6h2.413ZM67-12.54h2.176v4.1l3.835-4.1h2.845L71.465-7.951l4.77,5.286h-3.04L69.178-7.351v4.686H67Zm14.979,0h1.8l4.3,9.874H85.622l-.851-2.092H80.935l-.823,2.092h-2.4Zm.837,2.873L81.619-6.6h2.413ZM90.81-12.54h3.264a9.315,9.315,0,0,1,2.252.265,5.155,5.155,0,0,1,1.862.858A4.2,4.2,0,0,1,99.45-9.876a5.168,5.168,0,0,1,.467,2.3,4.7,4.7,0,0,1-.453,2.113,4.543,4.543,0,0,1-1.22,1.534,5.4,5.4,0,0,1-1.771.941,6.879,6.879,0,0,1-2.106.321H90.81Zm2.176,7.866h1.13a6.081,6.081,0,0,0,1.4-.153,3,3,0,0,0,1.123-.509,2.441,2.441,0,0,0,.746-.934,3.314,3.314,0,0,0,.272-1.416,2.76,2.76,0,0,0-.272-1.262,2.524,2.524,0,0,0-.732-.886,3.2,3.2,0,0,0-1.081-.523,4.8,4.8,0,0,0-1.3-.174H92.986Zm10.237-7.866h6.708v2.008H105.4V-8.69h4.282v2.008H105.4v2.008h4.784v2.008h-6.96Zm10.446,0h3.292L119.234-6.1h.028l2.287-6.444h3.278v9.874h-2.176v-7.573h-.028l-2.594,7.573h-1.66l-2.5-7.573h-.028v7.573h-2.176Zm14.881,0h2.176v9.874h-2.176Zm5.983,0h6.709v2.008H136.71V-8.69h4.282v2.008H136.71v2.008h4.784v2.008h-6.96Zm17.657,9.874h-1V-12.54h5.955v.921h-4.951v3.361h4.6v.921h-4.6Zm15.551-3.682a6.3,6.3,0,0,1-.146,1.3,3.506,3.506,0,0,1-.551,1.276,3.143,3.143,0,0,1-1.109.969,3.756,3.756,0,0,1-1.806.384,3.747,3.747,0,0,1-1.813-.384,3.159,3.159,0,0,1-1.1-.969,3.506,3.506,0,0,1-.551-1.276,6.3,6.3,0,0,1-.146-1.3V-12.54h1v6.081a4.664,4.664,0,0,0,.139,1.22,2.98,2.98,0,0,0,.37.858,2.037,2.037,0,0,0,.516.551,2.684,2.684,0,0,0,.572.314,2.369,2.369,0,0,0,.551.146,3.593,3.593,0,0,0,.46.035,3.68,3.68,0,0,0,.453-.035,2.361,2.361,0,0,0,.558-.146,2.684,2.684,0,0,0,.572-.314,2.037,2.037,0,0,0,.516-.551,2.979,2.979,0,0,0,.37-.858,4.664,4.664,0,0,0,.139-1.22V-12.54h1Zm-2.985-7.782a.717.717,0,0,1,.2-.5.662.662,0,0,1,.516-.216.662.662,0,0,1,.516.216.717.717,0,0,1,.2.5.717.717,0,0,1-.2.5.662.662,0,0,1-.516.216.662.662,0,0,1-.516-.216A.717.717,0,0,1,164.757-14.13Zm-2.678,0a.717.717,0,0,1,.2-.5.662.662,0,0,1,.516-.216.662.662,0,0,1,.516.216.717.717,0,0,1,.2.5.717.717,0,0,1-.2.5.662.662,0,0,1-.516.216.662.662,0,0,1-.516-.216A.717.717,0,0,1,162.079-14.13ZM173-8.174h1.785a4.016,4.016,0,0,0,1.137-.139,2.112,2.112,0,0,0,.746-.37,1.349,1.349,0,0,0,.4-.544A1.8,1.8,0,0,0,177.2-9.9a1.767,1.767,0,0,0-.126-.662,1.4,1.4,0,0,0-.4-.551,1.967,1.967,0,0,0-.746-.37,4.216,4.216,0,0,0-1.137-.132H173Zm0,5.509h-1V-12.54h3.04a3.872,3.872,0,0,1,2.378.656,2.319,2.319,0,0,1,.872,1.98,2.468,2.468,0,0,1-.649,1.736,2.786,2.786,0,0,1-1.876.816l2.845,4.686h-1.227l-2.706-4.589H173ZM6.445,13.543,9.778,5.509h1.534v9.874h-1V6.848H10.28L6.71,15.384H6.18L2.609,6.848H2.581v8.536h-1V5.509H3.111Zm10.293.921h5.286v.921h-6.29V5.509h6.123V6.43H16.737V9.791h4.784v.921H16.737Zm9.874,0h1.953a5.128,5.128,0,0,0,1.96-.342,4.055,4.055,0,0,0,1.381-.907,3.613,3.613,0,0,0,.816-1.283,4.3,4.3,0,0,0,0-2.971A3.613,3.613,0,0,0,31.9,7.678a4.055,4.055,0,0,0-1.381-.907,5.128,5.128,0,0,0-1.96-.342H26.612Zm-1-8.954h3.278a5.855,5.855,0,0,1,1.848.307,5.1,5.1,0,0,1,1.674.927,4.7,4.7,0,0,1,1.206,1.548,4.789,4.789,0,0,1,.46,2.155,4.778,4.778,0,0,1-.46,2.162,4.722,4.722,0,0,1-1.206,1.541,5.1,5.1,0,0,1-1.674.927,5.855,5.855,0,0,1-1.848.307H25.608Zm13.222,9.874h-1V5.509h1Zm5.425-.921h5.286v.921h-6.29V5.509h6.123V6.43H44.255V9.791h4.784v.921H44.255Zm16.151-.586h.028V5.509h1v9.874H60.182L54.3,6.932h-.028v8.452h-1V5.509H54.52Zm18.033-.823,2.2,2.329H77.951l-.823-.934a3.815,3.815,0,0,1-1.318.907,4.268,4.268,0,0,1-1.583.279,4.65,4.65,0,0,1-1.3-.181,3.467,3.467,0,0,1-1.123-.551,2.718,2.718,0,0,1-.788-.927,2.751,2.751,0,0,1-.293-1.3,2.528,2.528,0,0,1,.16-.9A2.733,2.733,0,0,1,71.333,11,3.166,3.166,0,0,1,72,10.4a3.408,3.408,0,0,1,.823-.411q-.237-.265-.439-.5a3.034,3.034,0,0,1-.349-.5,2.413,2.413,0,0,1-.223-.558,2.589,2.589,0,0,1-.077-.656,2.362,2.362,0,0,1,.258-1.144,2.28,2.28,0,0,1,.69-.781,2.914,2.914,0,0,1,.99-.446,4.7,4.7,0,0,1,1.144-.139A3.967,3.967,0,0,1,75.9,5.4a2.745,2.745,0,0,1,.914.446,2.217,2.217,0,0,1,.635.753,2.3,2.3,0,0,1,.237,1.081,2.252,2.252,0,0,1-.146.823,2.856,2.856,0,0,1-.4.7,3.287,3.287,0,0,1-.579.586,4.439,4.439,0,0,1-.7.453L77.128,11.6l.962-1.311h2.427ZM74.785,6.932a.985.985,0,0,0-.683.251.857.857,0,0,0-.279.669.814.814,0,0,0,.084.356,2.069,2.069,0,0,0,.2.335,2.309,2.309,0,0,0,.265.3q.146.139.272.251.167-.1.363-.23a2.775,2.775,0,0,0,.363-.293,1.642,1.642,0,0,0,.279-.349.768.768,0,0,0,.112-.4.8.8,0,0,0-.286-.662A1.066,1.066,0,0,0,74.785,6.932Zm-.669,4.24q-.209.126-.411.258a2.27,2.27,0,0,0-.363.293,1.289,1.289,0,0,0-.258.37,1.143,1.143,0,0,0-.1.488,1.107,1.107,0,0,0,.112.5,1.175,1.175,0,0,0,.293.377,1.469,1.469,0,0,0,.921.335,1.635,1.635,0,0,0,.844-.209,4.605,4.605,0,0,0,.7-.516ZM89.3,13.361a1.91,1.91,0,0,0,.516.99,1.446,1.446,0,0,0,1.046.363,1.633,1.633,0,0,0,.886-.216,1.522,1.522,0,0,0,.53-.558,2.378,2.378,0,0,0,.258-.781,5.729,5.729,0,0,0,.07-.9V5.509h1v7.169a4.165,4.165,0,0,1-.132,1.025,2.527,2.527,0,0,1-1.318,1.653,2.824,2.824,0,0,1-1.325.279,2.718,2.718,0,0,1-1.7-.523,2.323,2.323,0,0,1-.851-1.541Zm17.127-2.915a4.756,4.756,0,0,0-.279-1.625,4.112,4.112,0,0,0-.8-1.36,3.862,3.862,0,0,0-1.276-.934,4.326,4.326,0,0,0-3.4,0,3.862,3.862,0,0,0-1.276.934,4.111,4.111,0,0,0-.8,1.36,4.872,4.872,0,0,0,0,3.25,4.111,4.111,0,0,0,.8,1.36,3.862,3.862,0,0,0,1.276.934,4.326,4.326,0,0,0,3.4,0,3.862,3.862,0,0,0,1.276-.934,4.112,4.112,0,0,0,.8-1.36A4.756,4.756,0,0,0,106.431,10.447Zm1.088,0a5.406,5.406,0,0,1-.391,2.078,4.9,4.9,0,0,1-2.713,2.72,5.54,5.54,0,0,1-4.086,0,4.9,4.9,0,0,1-2.713-2.72,5.406,5.406,0,0,1-.391-2.078,5.406,5.406,0,0,1,.391-2.078,4.9,4.9,0,0,1,2.713-2.72,5.54,5.54,0,0,1,4.086,0,4.9,4.9,0,0,1,2.713,2.72A5.406,5.406,0,0,1,107.518,10.447ZM118.327,11.7a6.3,6.3,0,0,1-.146,1.3,3.506,3.506,0,0,1-.551,1.276,3.143,3.143,0,0,1-1.109.969,4.461,4.461,0,0,1-3.619,0,3.159,3.159,0,0,1-1.1-.969,3.505,3.505,0,0,1-.551-1.276,6.3,6.3,0,0,1-.146-1.3V5.509h1V11.59a4.663,4.663,0,0,0,.139,1.22,2.98,2.98,0,0,0,.37.858,2.036,2.036,0,0,0,.516.551,2.683,2.683,0,0,0,.572.314,2.369,2.369,0,0,0,.551.146,3.592,3.592,0,0,0,.46.035,3.68,3.68,0,0,0,.453-.035,2.361,2.361,0,0,0,.558-.146,2.684,2.684,0,0,0,.572-.314,2.037,2.037,0,0,0,.516-.551,2.981,2.981,0,0,0,.37-.858,4.665,4.665,0,0,0,.139-1.22V5.509h1Zm5.258-1.827h1.785a4.016,4.016,0,0,0,1.137-.139,2.112,2.112,0,0,0,.746-.37,1.349,1.349,0,0,0,.4-.544,1.8,1.8,0,0,0,.126-.676,1.767,1.767,0,0,0-.126-.662,1.4,1.4,0,0,0-.4-.551,1.967,1.967,0,0,0-.746-.37,4.216,4.216,0,0,0-1.137-.132h-1.785Zm0,5.509h-1V5.509h3.04A3.872,3.872,0,0,1,128,6.165a2.319,2.319,0,0,1,.872,1.98,2.468,2.468,0,0,1-.649,1.736,2.786,2.786,0,0,1-1.876.816l2.845,4.686h-1.227L125.259,10.8h-1.674Zm16.151-1.506h.028V5.509h1v9.874h-1.255l-5.886-8.452H133.6v8.452h-1V5.509h1.255Zm6.75-2.008h4.282l-2.134-5.188Zm-1.464,3.515H143.85l4.3-9.874h.976l4.3,9.874h-1.172l-1.088-2.594H146.11Zm12.483-.921h4.6v.921H156.5V5.509h1Zm8.717.921h-1V5.509h1Zm9.093-8.243a2.167,2.167,0,0,0-1.911-.962,2.853,2.853,0,0,0-.767.1,2.113,2.113,0,0,0-.676.321,1.6,1.6,0,0,0-.481.558,1.687,1.687,0,0,0-.181.8A1.39,1.39,0,0,0,171.675,9a2.979,2.979,0,0,0,.934.607,10.371,10.371,0,0,0,1.22.425,5.6,5.6,0,0,1,1.22.5,2.909,2.909,0,0,1,.934.83,2.345,2.345,0,0,1,.377,1.409,2.526,2.526,0,0,1-.286,1.206,2.774,2.774,0,0,1-.753.9,3.535,3.535,0,0,1-1.046.558,3.622,3.622,0,0,1-1.165.2,4.414,4.414,0,0,1-1.722-.342A3.278,3.278,0,0,1,170,14.17l.907-.656a2.4,2.4,0,0,0,.893.872,2.675,2.675,0,0,0,1.353.328,2.5,2.5,0,0,0,.753-.119,2.172,2.172,0,0,0,.676-.349,1.929,1.929,0,0,0,.5-.565,1.494,1.494,0,0,0,.2-.767,1.576,1.576,0,0,0-.216-.858,1.864,1.864,0,0,0-.572-.572,3.616,3.616,0,0,0-.809-.384q-.453-.153-.934-.307t-.934-.349a3.225,3.225,0,0,1-.809-.5,2.218,2.218,0,0,1-.572-.753,2.637,2.637,0,0,1-.216-1.137,2.684,2.684,0,0,1,.272-1.241,2.574,2.574,0,0,1,.725-.879,3.086,3.086,0,0,1,1.025-.516,4.354,4.354,0,0,1,2.692.1,3.278,3.278,0,0,1,1.269.934Zm9.693,6.4,3.333-8.033h1.534v9.874h-1V6.848h-.028l-3.57,8.536h-.53l-3.57-8.536h-.028v8.536h-1V5.509h1.534ZM201.354,11.7a6.3,6.3,0,0,1-.146,1.3,3.505,3.505,0,0,1-.551,1.276,3.143,3.143,0,0,1-1.109.969,4.461,4.461,0,0,1-3.619,0,3.159,3.159,0,0,1-1.1-.969,3.506,3.506,0,0,1-.551-1.276,6.3,6.3,0,0,1-.146-1.3V5.509h1V11.59a4.663,4.663,0,0,0,.139,1.22,2.98,2.98,0,0,0,.37.858,2.036,2.036,0,0,0,.516.551,2.683,2.683,0,0,0,.572.314,2.369,2.369,0,0,0,.551.146,3.592,3.592,0,0,0,.46.035,3.68,3.68,0,0,0,.453-.035,2.361,2.361,0,0,0,.558-.146,2.683,2.683,0,0,0,.572-.314,2.037,2.037,0,0,0,.516-.551,2.98,2.98,0,0,0,.37-.858,4.665,4.665,0,0,0,.139-1.22V5.509h1Zm8.926-4.561a2.167,2.167,0,0,0-1.911-.962,2.853,2.853,0,0,0-.767.1,2.113,2.113,0,0,0-.676.321,1.6,1.6,0,0,0-.481.558,1.687,1.687,0,0,0-.181.8A1.39,1.39,0,0,0,206.64,9a2.98,2.98,0,0,0,.934.607,10.369,10.369,0,0,0,1.22.425,5.6,5.6,0,0,1,1.22.5,2.909,2.909,0,0,1,.934.83,2.345,2.345,0,0,1,.377,1.409,2.526,2.526,0,0,1-.286,1.206,2.774,2.774,0,0,1-.753.9,3.535,3.535,0,0,1-1.046.558,3.623,3.623,0,0,1-1.165.2,4.414,4.414,0,0,1-1.722-.342,3.278,3.278,0,0,1-1.388-1.123l.907-.656a2.4,2.4,0,0,0,.893.872,2.675,2.675,0,0,0,1.353.328,2.5,2.5,0,0,0,.753-.119,2.173,2.173,0,0,0,.676-.349,1.93,1.93,0,0,0,.5-.565,1.494,1.494,0,0,0,.2-.767,1.576,1.576,0,0,0-.216-.858,1.864,1.864,0,0,0-.572-.572,3.617,3.617,0,0,0-.809-.384q-.453-.153-.934-.307t-.934-.349a3.225,3.225,0,0,1-.809-.5,2.218,2.218,0,0,1-.572-.753,2.637,2.637,0,0,1-.216-1.137,2.684,2.684,0,0,1,.272-1.241,2.574,2.574,0,0,1,.725-.879,3.086,3.086,0,0,1,1.025-.516,4.354,4.354,0,0,1,2.692.1,3.278,3.278,0,0,1,1.269.934Z" transform="translate(101.73 46.819)" fill="#091d4b"/>
    <path id="Pfad_81" data-name="Pfad 81" d="M806.051,358.583a22.953,22.953,0,0,0,3.835-5.37,22.438,22.438,0,0,0,2.388-13.536,22.045,22.045,0,0,0-4.226-10.5c-4.709-6.271-11.067-9.3-17.527-9.424a23.134,23.134,0,0,0-10.2,1.985c-8,3.789-12.625,10.1-13.513,18.909a22.109,22.109,0,0,0,6.2,17.834,4.035,4.035,0,0,0,.788.67,1.917,1.917,0,0,0,2.272-.308,1.7,1.7,0,0,0,.2-2.273c-.3-.425-.631-.826-.968-1.223a18.849,18.849,0,0,1-4.63-15.268,18.555,18.555,0,0,1,5.19-10.663,18.953,18.953,0,0,1,23.846-2.87c6.653,4.319,9.54,10.609,8.777,18.493a18.1,18.1,0,0,1-4.458,10.087m-3.139-2.227a15.2,15.2,0,0,0,3.905-10.678,13.343,13.343,0,0,0-1.526-6.259,15.184,15.184,0,0,0-16.255-8.336,15.317,15.317,0,0,0-12.488,17.634,14.433,14.433,0,0,0,3.257,7.1,8.713,8.713,0,0,0,1.388,1.345,1.757,1.757,0,0,0,2.2-.179,1.788,1.788,0,0,0,.4-2.265,7.417,7.417,0,0,0-.777-1.016,11.465,11.465,0,0,1,2.977-17.547,11.605,11.605,0,0,1,6.023-1.423,10.678,10.678,0,0,1,6.939,2.666,11.235,11.235,0,0,1,3.948,10.46,11.048,11.048,0,0,1-2.669,5.773,8.335,8.335,0,0,0-.851,1.132m-15.22-8.591a7.436,7.436,0,1,0,7.311-7.473,7.473,7.473,0,0,0-7.311,7.473" transform="translate(-723.771 -289.884)" fill="#fff"/>
    <g id="Gruppe_342" data-name="Gruppe 342" transform="translate(7.217 7.217)">
      <circle id="Ellipse_41" data-name="Ellipse 41" cx="40" cy="40" r="40" transform="translate(0)" fill="#091d4b"/>
      <g id="Gruppe_341" data-name="Gruppe 341" transform="translate(15.94 17.668)">
        <path id="Pfad_119" data-name="Pfad 119" d="M47.351,24.63c-.07.675-.127,1.351-.214,2.024a23.23,23.23,0,0,1-6.123,13.118A24.993,24.993,0,0,1,34.9,44.564c-.043.024-.089.041-.193.087-.3-1.061-.6-2.1-.87-3.141A.427.427,0,0,1,34,41.158a20.71,20.71,0,0,0,9.488-13.449,24.743,24.743,0,0,0,.308-3.955c.352-8.232-5.309-16.515-13.871-19.318a20.466,20.466,0,0,0-7.468-.9,19.249,19.249,0,0,0-11.23,4.279A19.979,19.979,0,0,0,3.84,20.093,20.58,20.58,0,0,0,3.7,25.911a19.287,19.287,0,0,0,6.876,13.058c.911.793,1.929,1.461,2.885,2.2a.465.465,0,0,1,.156.388c-.282,1.019-.592,2.032-.91,3.1-.431-.254-.835-.477-1.223-.723A23.356,23.356,0,0,1,.576,28.363,23.526,23.526,0,0,1,11.762,3.291,23.138,23.138,0,0,1,22.138.061,2.11,2.11,0,0,0,22.429,0H25.08c.109.022.218.052.328.067,1,.137,2.015.194,2.993.418A23.46,23.46,0,0,1,44.84,13.2a22.126,22.126,0,0,1,2.3,7.552c.077.661.14,1.323.209,1.985Z" transform="translate(-0.096)" fill="#fff"/>
        <path id="Pfad_120" data-name="Pfad 120" d="M16.411,38.5a16.038,16.038,0,0,1-4.785-5.1A15.6,15.6,0,0,1,9.608,22.978a15.891,15.891,0,1,1,24.514,15.55c-.127-.514-.254-1.009-.373-1.505-.127-.528-.232-1.061-.376-1.583a.639.639,0,0,1,.2-.726,14.231,14.231,0,0,0,2.4-2.912,12.475,12.475,0,1,0-22.689-9.759,13.5,13.5,0,0,0-.314,4.436,11.753,11.753,0,0,0,3.3,7.414c.3.328.622.628.92.954a.432.432,0,0,1,.127.317c-.247,1.028-.511,2.054-.775,3.078a1.631,1.631,0,0,1-.132.256" transform="translate(-1.7 -1.612)" fill="#81a4cd"/>
      </g>
      <circle id="Ellipse_42" data-name="Ellipse 42" cx="5.24" cy="5.24" r="5.24" transform="translate(34.777 34.776)" fill="#fff"/>
    </g>
  </g>
</svg>
